<svg xmlns="http://www.w3.org/2000/svg" viewBox="0 0 120 120" role="img" aria-label="隨緣堂 標誌">
<defs>
  <linearGradient id="g" x1="0" x2="1">
    <stop offset="0%" stop-color="#16362f"/>
    <stop offset="100%" stop-color="#2f5b50"/>
  </linearGradient>
</defs>
<rect width="120" height="120" rx="30" fill="#f6f3eb"/>
<circle cx="60" cy="60" r="42" fill="none" stroke="url(#g)" stroke-width="6"/>
<path d="M60 18c11 0 20 9 20 20 0 13-9 23-20 31-11-8-20-18-20-31 0-11 9-20 20-20z" fill="none" stroke="#b99255" stroke-width="5" stroke-linejoin="round"/>
<path d="M60 30c5 0 9 4 9 9 0 4-3 8-9 13-6-5-9-9-9-13 0-5 4-9 9-9z" fill="#b99255" opacity=".25"/>
<path d="M36 82c8 10 18 15 24 15s16-5 24-15" fill="none" stroke="url(#g)" stroke-width="6" stroke-linecap="round"/>
</svg>