<svg xmlns="http://www.w3.org/2000/svg" viewBox="0 0 760 620" role="img" aria-label="山巒、日月與靜坐的意象插畫">
<defs>
  <linearGradient id="sky" x1="0" y1="0" x2="0" y2="1">
    <stop offset="0%" stop-color="#f9f4ea"/>
    <stop offset="100%" stop-color="#e9efe8"/>
  </linearGradient>
  <linearGradient id="mountainA" x1="0" y1="0" x2="1" y2="1">
    <stop offset="0%" stop-color="#295347"/>
    <stop offset="100%" stop-color="#17362f"/>
  </linearGradient>
  <linearGradient id="mountainB" x1="0" y1="0" x2="1" y2="1">
    <stop offset="0%" stop-color="#6f8f84"/>
    <stop offset="100%" stop-color="#395f55"/>
  </linearGradient>
  <filter id="shadow" x="-20%" y="-20%" width="140%" height="140%">
    <feDropShadow dx="0" dy="16" stdDeviation="18" flood-color="#1d2623" flood-opacity=".14"/>
  </filter>
</defs>
<rect width="760" height="620" rx="32" fill="url(#sky)"/>
<circle cx="590" cy="130" r="54" fill="#d9bf8b" opacity=".9"/>
<circle cx="160" cy="120" r="24" fill="#17362f" opacity=".15"/>
<path d="M0 420C78 372 142 331 227 332c92 1 133 65 216 64 82-1 118-57 187-57 54 0 93 24 130 53v228H0z" fill="#dde4dd"/>
<path d="M0 452c62-13 111-71 191-76 85-5 141 53 236 53 89 0 148-44 197-44 54 0 94 24 136 52v183H0z" fill="url(#mountainB)"/>
<path d="M0 500c104-16 159-104 282-104 104 0 159 74 245 74 93 0 138-43 233-30v180H0z" fill="url(#mountainA)"/>
<g filter="url(#shadow)">
  <path d="M386 386c18 0 32 14 32 32v8h12c14 0 26 12 26 26v13H306v-13c0-14 12-26 26-26h12v-8c0-18 14-32 32-32h10z" fill="#f6f3eb"/>
  <path d="M342 426c15 22 28 42 40 42s25-20 40-42" fill="none" stroke="#16362f" stroke-width="8" stroke-linecap="round"/>
  <circle cx="381" cy="414" r="10" fill="#16362f"/>
  <path d="M358 381c6 12 14 19 23 19s17-7 23-19" fill="none" stroke="#b99255" stroke-width="7" stroke-linecap="round"/>
</g>
<path d="M414 145c7 20 23 30 48 30-24 5-40 17-48 37-8-20-24-32-48-37 25 0 41-10 48-30z" fill="#b99255" opacity=".75"/>
</svg>