<svg xmlns="http://www.w3.org/2000/svg" viewBox="0 0 1200 630">
<defs>
  <linearGradient id="bg" x1="0" x2="1" y1="0" y2="1">
    <stop offset="0%" stop-color="#16362f"/>
    <stop offset="100%" stop-color="#274f45"/>
  </linearGradient>
</defs>
<rect width="1200" height="630" fill="url(#bg)"/>
<circle cx="932" cy="126" r="72" fill="#d7bd87" opacity=".94"/>
<path d="M0 472c116-22 204-102 337-102 125 0 184 74 291 74 116 0 184-50 289-41 93 8 182 53 283 105v122H0z" fill="#0f2722"/>
<g transform="translate(94 116)">
  <rect width="90" height="90" rx="22" fill="#f6f3eb"/>
  <circle cx="45" cy="45" r="28" fill="none" stroke="#16362f" stroke-width="4"/>
  <path d="M45 18c8 0 14 6 14 14 0 9-6 16-14 22-8-6-14-13-14-22 0-8 6-14 14-14z" fill="none" stroke="#b99255" stroke-width="4"/>
  <path d="M28 60c5 7 10 10 17 10s12-3 17-10" fill="none" stroke="#16362f" stroke-width="4" stroke-linecap="round"/>
</g>
<text x="94" y="282" fill="#fff" font-size="64" font-family="Noto Sans TC, sans-serif" font-weight="700">隨緣堂</text>
<text x="94" y="358" fill="#d9bf8b" font-size="28" font-family="Noto Sans TC, sans-serif">修為為體・濟世為用・冥陽兩利</text>
<text x="94" y="430" fill="#f0ede5" font-size="28" font-family="Noto Sans TC, sans-serif">商業等級玄學品牌網站｜收驚・祭改・修行・專欄內容</text>
</svg>